<?xml version="1.0" standalone="no"?>
<!DOCTYPE svg PUBLIC "-//W3C//DTD SVG 20010904//EN"
 "http://www.w3.org/TR/2001/REC-SVG-20010904/DTD/svg10.dtd">
<svg version="1.0" xmlns="http://www.w3.org/2000/svg"
 width="700.000000pt" height="700.000000pt" viewBox="0 0 700.000000 700.000000"
 preserveAspectRatio="xMidYMid meet">
<metadata>
Created by potrace 1.14, written by Peter Selinger 2001-2017
</metadata>
<g transform="translate(0.000000,700.000000) scale(0.100000,-0.100000)"
fill="#000000" stroke="none">
<path d="M585 6120 c-1 -3 -2 -528 -2 -1167 l0 -1163 1018 0 c808 0 1019 3
1020 13 1 6 3 199 4 427 1 228 3 420 4 425 1 7 99 11 291 11 l290 0 0 -1458 0
-1458 582 -2 583 -3 0 -430 c-1 -236 2 -432 6 -435 4 -3 463 -5 1021 -5 l1013
0 1 1168 0 1167 -1017 0 c-805 0 -1018 -3 -1021 -12 -2 -7 -4 -203 -4 -435 1
-233 -1 -424 -4 -424 -3 -1 -134 -3 -292 -4 l-288 -2 0 1167 0 1166 292 -1
293 0 0 -435 0 -435 1020 0 1020 0 0 1165 0 1165 -1010 1 c-555 0 -1015 -1
-1020 -3 -7 -2 -10 -152 -10 -429 0 -234 -2 -430 -6 -435 -3 -5 -350 -8 -875
-7 l-869 3 0 435 0 435 -1018 0 c-561 0 -1020 -2 -1022 -5z m1452 -584 c3 -3
6 -1038 3 -1146 0 -13 -55 -15 -435 -15 -429 0 -435 0 -436 20 0 11 -1 272 -1
580 l-1 560 89 5 c105 6 775 3 781 -4z m3791 0 c4 -5 7 -1072 3 -1146 -1 -13
-54 -15 -430 -15 -236 0 -432 3 -436 7 -5 5 -9 943 -6 1130 1 24 5 27 44 30
73 5 819 0 825 -6z m3 -2931 c0 -11 1 -273 2 -583 l2 -562 -130 0 c-331 -2
-740 1 -743 5 -3 3 -5 1097 -3 1150 1 7 153 10 436 10 428 0 435 0 436 -20z"/>
</g>
</svg>
